<svg xmlns="http://www.w3.org/2000/svg" viewBox="0 0 1100 700" role="img" aria-label="Visible versus encrypted transaction flow comparison showing MEV vulnerability">
  <title>Transaction Flow: Visible vs Encrypted</title>
  <desc>Two horizontal flows stacked vertically — the top shows MEV sandwich attacks on standard transactions, the bottom shows how encrypted transactions prevent them</desc>

  <defs>
    <filter id="shadow">
      <feDropShadow dx="0" dy="1" stdDeviation="2.5" flood-color="#000" flood-opacity="0.06"/>
    </filter>
    <marker id="arr-red" markerWidth="10" markerHeight="7" refX="9" refY="3.5" orient="auto">
      <path d="M0,0 L10,3.5 L0,7" fill="#e63946"/>
    </marker>
    <marker id="arr-teal" markerWidth="10" markerHeight="7" refX="9" refY="3.5" orient="auto">
      <path d="M0,0 L10,3.5 L0,7" fill="#2a9d8f"/>
    </marker>
    <linearGradient id="bg" x1="0" y1="0" x2="0" y2="1">
      <stop offset="0%" stop-color="#fafbfc"/>
      <stop offset="100%" stop-color="#f1f3f5"/>
    </linearGradient>
    <linearGradient id="panel-l" x1="0" y1="0" x2="0" y2="1">
      <stop offset="0%" stop-color="#fff5f5" stop-opacity="0.4"/>
      <stop offset="100%" stop-color="#ffffff"/>
    </linearGradient>
    <linearGradient id="panel-r" x1="0" y1="0" x2="0" y2="1">
      <stop offset="0%" stop-color="#f0fdf9" stop-opacity="0.4"/>
      <stop offset="100%" stop-color="#ffffff"/>
    </linearGradient>
  </defs>

  <style>
    @media (prefers-reduced-motion: reduce) {
      * { animation: none !important; }
    }
    .text { font-family: -apple-system, BlinkMacSystemFont, 'Segoe UI', Roboto, sans-serif; }
    .badge-text { font-size: 10px; font-weight: 700; fill: white; text-anchor: middle; }
    .node-label { font-size: 13px; font-weight: 600; fill: #495057; text-anchor: middle; }
    .sub { font-size: 10px; fill: #adb5bd; text-anchor: middle; }
    .flow-line { stroke-width: 2.5; fill: none; stroke-linecap: round; }
  </style>

  <rect width="1100" height="700" fill="url(#bg)" rx="16"/>

  <!-- ═══════════════════════════════════════════════════ -->
  <!-- TOP BAND: Standard Transaction Flow (VULNERABLE)   -->
  <!-- ═══════════════════════════════════════════════════ -->
  <g>
    <rect x="20" y="12" width="1060" height="320" rx="12" fill="#f8f9fa" stroke="#dee2e6" stroke-width="1"/>

    <!-- Header -->
    <text x="80" y="42" font-size="17" font-weight="700" fill="#495057">Standard Transaction Flow</text>
    <rect x="340" y="28" width="170" height="22" rx="11" fill="#e63946"/>
    <text x="425" y="43" class="badge-text text">VULNERABLE TO MEV</text>

    <!-- ── Wallet ── -->
    <rect x="45" y="140" width="120" height="52" rx="10" fill="white" stroke="#dee2e6" stroke-width="1.5" filter="url(#shadow)"/>
    <g transform="translate(63, 148) scale(0.65)" stroke="#495057" fill="none" stroke-width="2" stroke-linecap="round" stroke-linejoin="round">
      <path d="M19 7V4a1 1 0 0 0-1-1H5a2 2 0 0 0 0 4h15a1 1 0 0 1 1 1v4h-3a2 2 0 0 0 0 4h3a1 1 0 0 0 1-1v-2a1 1 0 0 0-1-1"/>
      <path d="M3 5v14a2 2 0 0 0 2 2h15a1 1 0 0 0 1-1v-4"/>
    </g>
    <text x="105" y="168" class="node-label text" font-size="12">Wallet</text>
    <text x="105" y="183" class="sub text" font-size="9">$10,000 USDC</text>

    <!-- Arrow: Wallet → Mempool -->
    <line x1="165" y1="166" x2="240" y2="166" stroke="#e63946" class="flow-line" stroke-dasharray="75" stroke-dashoffset="75" marker-end="url(#arr-red)">
      <animate attributeName="stroke-dashoffset" values="75;0" dur="1.2s" repeatCount="indefinite"/>
    </line>
    <circle r="5" fill="#e63946" opacity="0.8">
      <animate attributeName="cx" values="165;240" dur="1s" calcMode="spline" keySplines="0.4 0 0.6 1" repeatCount="indefinite"/>
      <animate attributeName="cy" values="166;166" dur="1s" repeatCount="indefinite"/>
      <animate attributeName="opacity" values="0.8;0" dur="1s" repeatCount="indefinite"/>
    </circle>

    <!-- ── Mempool container (wide, for sandwich attack) ── -->
    <rect x="250" y="80" width="440" height="200" rx="12" fill="white" stroke="#dee2e6" stroke-width="2" filter="url(#shadow)"/>
    <text x="470" y="106" font-size="13" font-weight="700" fill="#495057" text-anchor="middle">Visible Mempool</text>
    <text x="470" y="120" class="sub text">All transactions visible to everyone</text>

    <!-- Pending transactions — uniform 80px cards, 30px gaps -->
    <g opacity="0.45">
      <!-- Top row (y=126) -->
      <rect x="265" y="126" width="80" height="18" rx="4" fill="#e9ecef" stroke="#dee2e6" stroke-width="0.5"/>
      <text x="305" y="139" font-size="9" fill="#6c757d" text-anchor="middle" class="text">Swap $4K</text>

      <rect x="375" y="126" width="80" height="18" rx="4" fill="#e9ecef" stroke="#dee2e6" stroke-width="0.5"/>
      <text x="415" y="139" font-size="9" fill="#adb5bd" text-anchor="middle" class="text">Transfer</text>

      <rect x="485" y="126" width="80" height="18" rx="4" fill="#e9ecef" stroke="#dee2e6" stroke-width="0.5"/>
      <text x="525" y="139" font-size="9" fill="#adb5bd" text-anchor="middle" class="text">NFT Mint</text>

      <rect x="595" y="126" width="80" height="18" rx="4" fill="#e9ecef" stroke="#dee2e6" stroke-width="0.5"/>
      <text x="635" y="139" font-size="9" fill="#adb5bd" text-anchor="middle" class="text">Bridge</text>

      <!-- Bottom row (y=244) -->
      <rect x="265" y="244" width="80" height="18" rx="4" fill="#e9ecef" stroke="#dee2e6" stroke-width="0.5"/>
      <text x="305" y="257" font-size="9" fill="#adb5bd" text-anchor="middle" class="text">Deposit</text>

      <rect x="375" y="244" width="80" height="18" rx="4" fill="#e9ecef" stroke="#dee2e6" stroke-width="0.5"/>
      <text x="415" y="257" font-size="9" fill="#adb5bd" text-anchor="middle" class="text">Stake</text>

      <rect x="485" y="244" width="80" height="18" rx="4" fill="#e9ecef" stroke="#dee2e6" stroke-width="0.5"/>
      <text x="525" y="257" font-size="9" fill="#6c757d" text-anchor="middle" class="text">Swap $8K</text>

      <rect x="595" y="244" width="80" height="18" rx="4" fill="#e9ecef" stroke="#dee2e6" stroke-width="0.5"/>
      <text x="635" y="257" font-size="9" fill="#adb5bd" text-anchor="middle" class="text">List NFT</text>
    </g>

    <!-- Sandwich attack visualization -->
    <g transform="translate(280, 150)">
      <!-- MEV Front-run -->
      <rect width="100" height="32" rx="6" fill="#e63946" opacity="0" filter="url(#shadow)">
        <animate attributeName="opacity" values="0;0;0.9;0.9;0.9;0" dur="4s" repeatCount="indefinite"/>
        <animate attributeName="x" values="-50;0;0;0;0;0" dur="4s" calcMode="spline" keySplines="0.4 0 0.6 1;0.4 0 0.6 1;0.4 0 0.6 1;0.4 0 0.6 1;0.4 0 0.6 1" repeatCount="indefinite"/>
      </rect>
      <text x="50" y="21" fill="white" font-size="10" font-weight="700" text-anchor="middle" opacity="0">
        <animate attributeName="opacity" values="0;0;0;1;1;0" dur="4s" repeatCount="indefinite"/>
        MEV Buy
      </text>
      <text x="50" y="50" fill="#e63946" font-size="9" font-weight="700" text-anchor="middle" opacity="0">
        <animate attributeName="opacity" values="0;0;0;0.8;0.8;0" dur="4s" repeatCount="indefinite"/>
        FRONT-RUN
      </text>

      <!-- User's transaction (center) -->
      <rect x="120" y="0" width="100" height="32" rx="6" fill="#fff3e0" stroke="#fd7e14" stroke-width="1.5"/>
      <text x="170" y="21" fill="#e65100" font-size="10" font-weight="700" text-anchor="middle">Your Tx</text>

      <!-- MEV Back-run -->
      <rect width="100" height="32" rx="6" fill="#e63946" opacity="0" filter="url(#shadow)">
        <animate attributeName="opacity" values="0;0;0;0.9;0.9;0" dur="4s" begin="0.6s" repeatCount="indefinite"/>
        <animate attributeName="x" values="290;240;240;240;240;240" dur="4s" begin="0.6s" calcMode="spline" keySplines="0.4 0 0.6 1;0.4 0 0.6 1;0.4 0 0.6 1;0.4 0 0.6 1;0.4 0 0.6 1" repeatCount="indefinite"/>
      </rect>
      <text x="290" y="21" fill="white" font-size="10" font-weight="700" text-anchor="middle" opacity="0">
        <animate attributeName="opacity" values="0;0;0;1;1;0" dur="4s" begin="0.6s" repeatCount="indefinite"/>
        MEV Sell
      </text>
      <text x="290" y="50" fill="#e63946" font-size="9" font-weight="700" text-anchor="middle" opacity="0">
        <animate attributeName="opacity" values="0;0;0;0.8;0.8;0" dur="4s" begin="0.6s" repeatCount="indefinite"/>
        BACK-RUN
      </text>

      <!-- Reordering arrows -->
      <path d="M115,32 L122,10" stroke="#e63946" stroke-width="1.5" stroke-dasharray="3,2" opacity="0">
        <animate attributeName="opacity" values="0;0;0.7;0.7;0.7;0" dur="4s" repeatCount="indefinite"/>
      </path>
      <path d="M225,32 L218,10" stroke="#e63946" stroke-width="1.5" stroke-dasharray="3,2" opacity="0">
        <animate attributeName="opacity" values="0;0;0;0.7;0.7;0" dur="4s" begin="0.6s" repeatCount="indefinite"/>
      </path>

      <!-- Price impact -->
      <g transform="translate(370, 0)" opacity="0">
        <animate attributeName="opacity" values="0;0;0;1;1;0" dur="4s" repeatCount="indefinite"/>
        <text x="0" y="14" font-size="10" fill="#6c757d" class="text">Cost:</text>
        <text x="0" y="30" font-size="12" fill="#e63946" font-weight="700" class="text">$5.37</text>
        <text x="0" y="44" font-size="9" fill="#e63946" class="text">(+7.4%)</text>
      </g>
    </g>

    <!-- Arrow: Mempool → Validator -->
    <line x1="690" y1="166" x2="770" y2="166" stroke="#e63946" class="flow-line" stroke-dasharray="80" stroke-dashoffset="80" marker-end="url(#arr-red)">
      <animate attributeName="stroke-dashoffset" values="80;0" dur="1.2s" begin="0.3s" repeatCount="indefinite"/>
    </line>
    <circle r="5" fill="#e63946" opacity="0.8">
      <animate attributeName="cx" values="690;770" dur="1s" begin="0.3s" calcMode="spline" keySplines="0.4 0 0.6 1" repeatCount="indefinite"/>
      <animate attributeName="cy" values="166;166" dur="1s" begin="0.3s" repeatCount="indefinite"/>
      <animate attributeName="opacity" values="0.8;0" dur="1s" begin="0.3s" repeatCount="indefinite"/>
    </circle>

    <!-- ── Validator ── -->
    <rect x="780" y="140" width="130" height="52" rx="10" fill="white" stroke="#dee2e6" stroke-width="1.5" filter="url(#shadow)"/>
    <g transform="translate(800, 147) scale(0.58)" stroke="#495057" fill="none" stroke-width="2" stroke-linecap="round" stroke-linejoin="round">
      <rect x="4" y="4" width="16" height="16" rx="2"/>
      <rect x="8" y="8" width="8" height="8" rx="1"/>
      <path d="M12 2v2"/><path d="M12 20v2"/><path d="M2 12h2"/><path d="M20 12h2"/>
    </g>
    <text x="845" y="168" class="node-label text" font-size="12">Validator</text>
    <text x="845" y="183" class="sub text" font-size="9">Sees everything</text>

    <!-- Arrow: Validator → Block -->
    <line x1="910" y1="166" x2="945" y2="166" stroke="#e63946" class="flow-line" marker-end="url(#arr-red)"/>

    <!-- ── Block ── -->
    <rect x="955" y="140" width="110" height="52" rx="10" fill="white" stroke="#dee2e6" stroke-width="1.5" filter="url(#shadow)"/>
    <g transform="translate(970, 147) scale(0.58)" stroke="#495057" fill="none" stroke-width="2" stroke-linecap="round" stroke-linejoin="round">
      <path d="M21 8a2 2 0 0 0-1-1.73l-7-4a2 2 0 0 0-2 0l-7 4A2 2 0 0 0 3 8v8a2 2 0 0 0 1 1.73l7 4a2 2 0 0 0 2 0l7-4A2 2 0 0 0 21 16Z"/>
      <path d="m3.3 7 8.7 5 8.7-5"/><path d="M12 22V12"/>
    </g>
    <text x="1010" y="168" class="node-label text" font-size="12">Block</text>
    <text x="1010" y="183" class="sub text" font-size="9">Reordered txs</text>

    <!-- Bottom damage stat -->
    <text x="550" y="318" font-size="12" fill="#e63946" text-anchor="middle" font-weight="600">$540M+ extracted via MEV attacks</text>
  </g>

  <!-- ═══ Divider ═══ -->
  <line x1="40" y1="345" x2="1060" y2="345" stroke="#dee2e6" stroke-width="1.5"/>

  <!-- ═══════════════════════════════════════════════════ -->
  <!-- BOTTOM BAND: Encrypted Transaction Flow (PROTECTED) -->
  <!-- ═══════════════════════════════════════════════════ -->
  <g>
    <rect x="20" y="358" width="1060" height="330" rx="12" fill="#f8f9fa" stroke="#dee2e6" stroke-width="1"/>

    <!-- Header -->
    <text x="80" y="390" font-size="17" font-weight="700" fill="#495057">Encrypted Transaction Flow</text>
    <rect x="380" y="376" width="130" height="22" rx="11" fill="#2a9d8f"/>
    <text x="445" y="391" class="badge-text text">PROTECTED</text>

    <!-- ── Wallet ── -->
    <rect x="40" y="490" width="110" height="50" rx="10" fill="white" stroke="#dee2e6" stroke-width="1.5" filter="url(#shadow)"/>
    <g transform="translate(55, 497) scale(0.58)" stroke="#495057" fill="none" stroke-width="2" stroke-linecap="round" stroke-linejoin="round">
      <path d="M19 7V4a1 1 0 0 0-1-1H5a2 2 0 0 0 0 4h15a1 1 0 0 1 1 1v4h-3a2 2 0 0 0 0 4h3a1 1 0 0 0 1-1v-2a1 1 0 0 0-1-1"/>
      <path d="M3 5v14a2 2 0 0 0 2 2h15a1 1 0 0 0 1-1v-4"/>
    </g>
    <text x="95" y="516" class="node-label text" font-size="12">Wallet</text>
    <text x="95" y="531" class="sub text" font-size="9">$10,000 USDC</text>

    <!-- Arrow: Wallet → Encrypt -->
    <line x1="150" y1="515" x2="190" y2="515" stroke="#2a9d8f" class="flow-line" marker-end="url(#arr-teal)"/>

    <!-- ── Encrypt step ── -->
    <circle cx="215" cy="515" r="24" fill="#e3f2fd" stroke="#457b9d" stroke-width="2.5" filter="url(#shadow)"/>
    <g transform="translate(205, 503) scale(0.75)" stroke="#457b9d" fill="none" stroke-width="2.5" stroke-linecap="round" stroke-linejoin="round">
      <rect width="18" height="11" x="3" y="11" rx="2" ry="2"/>
      <path d="M7 11V7a5 5 0 0 1 10 0v4"/>
    </g>
    <!-- Pulsing aura -->
    <circle cx="215" cy="515" r="28" fill="none" stroke="#457b9d" stroke-width="1.5" opacity="0">
      <animate attributeName="r" values="24;38;24" dur="3s" calcMode="spline" keySplines="0.4 0 0.6 1;0.4 0 0.6 1" repeatCount="indefinite"/>
      <animate attributeName="opacity" values="0.4;0;0.4" dur="3s" repeatCount="indefinite"/>
    </circle>
    <text x="215" y="555" font-size="10" fill="#457b9d" text-anchor="middle" font-weight="600">Encrypt</text>

    <!-- Arrow: Encrypt → Mempool -->
    <line x1="239" y1="515" x2="300" y2="515" stroke="#2a9d8f" class="flow-line" marker-end="url(#arr-teal)"/>
    <circle r="5" fill="#2a9d8f" opacity="0.8">
      <animate attributeName="cx" values="239;300" dur="0.8s" calcMode="spline" keySplines="0.4 0 0.6 1" repeatCount="indefinite"/>
      <animate attributeName="cy" values="515;515" dur="0.8s" repeatCount="indefinite"/>
      <animate attributeName="opacity" values="0.8;0" dur="0.8s" repeatCount="indefinite"/>
    </circle>

    <!-- ── Encrypted Mempool ── -->
    <rect x="310" y="430" width="300" height="180" rx="12" fill="white" stroke="#2a9d8f" stroke-width="2" filter="url(#shadow)"/>
    <text x="460" y="455" font-size="13" font-weight="700" fill="#495057" text-anchor="middle">Encrypted Mempool</text>
    <text x="460" y="470" class="sub text">Transactions are ciphertext</text>

    <!-- Encrypted data — uniform 130x22 cards, 10px spacing -->
    <g transform="translate(330, 480)">
      <rect width="130" height="22" rx="4" fill="#e3f2fd" stroke="#457b9d" stroke-width="1"/>
      <text x="65" y="15" font-size="9" text-anchor="middle" fill="#457b9d" font-family="monospace" class="text">0x7a3f...9e2b</text>

      <rect y="32" width="130" height="22" rx="4" fill="#e3f2fd" stroke="#457b9d" stroke-width="1"/>
      <text x="65" y="47" font-size="9" text-anchor="middle" fill="#457b9d" font-family="monospace" class="text">0xb2c1...4f8d</text>

      <rect y="64" width="130" height="22" rx="4" fill="#e3f2fd" stroke="#457b9d" stroke-width="1"/>
      <text x="65" y="79" font-size="9" text-anchor="middle" fill="#457b9d" font-family="monospace" class="text">0xf9d2...1a7c</text>

      <rect y="96" width="130" height="22" rx="4" fill="#e3f2fd" stroke="#457b9d" stroke-width="1"/>
      <text x="65" y="111" font-size="9" text-anchor="middle" fill="#457b9d" font-family="monospace" class="text">0xc4e8...3d5a</text>
    </g>

    <!-- Shield overlay (Lucide shield icon) -->
    <g transform="translate(504, 490) scale(1.6)" opacity="0">
      <animate attributeName="opacity" values="0;0.5;0.3;0.5;0" dur="4s" repeatCount="indefinite"/>
      <path d="M20 13c0 5-3.5 7.5-7.66 8.95a1 1 0 0 1-.67-.01C7.5 20.5 4 18 4 13V6a1 1 0 0 1 1-1c2 0 4.5-1.2 6.24-2.72a1.17 1.17 0 0 1 1.52 0C14.51 3.81 17 5 19 5a1 1 0 0 1 1 1z" fill="none" stroke="#2a9d8f" stroke-width="1.5" stroke-linecap="round" stroke-linejoin="round"/>
    </g>

    <!-- Blocked MEV bot (Lucide bot icon) -->
    <g opacity="0.4" transform="translate(316, 566) scale(0.65)">
      <rect width="16" height="12" x="4" y="8" rx="2" stroke="#6c757d" fill="#e9ecef" stroke-width="2"/>
      <path d="M12 8V4H8" stroke="#6c757d" fill="none" stroke-width="2" stroke-linecap="round"/>
      <path d="M15 13v2" stroke="#6c757d" fill="none" stroke-width="2" stroke-linecap="round"/>
      <path d="M9 13v2" stroke="#6c757d" fill="none" stroke-width="2" stroke-linecap="round"/>
      <line x1="0" y1="4" x2="24" y2="20" stroke="#e63946" stroke-width="3" stroke-linecap="round"/>
      <line x1="24" y1="4" x2="0" y2="20" stroke="#e63946" stroke-width="3" stroke-linecap="round"/>
    </g>
    <text x="330" y="604" font-size="9" fill="#adb5bd" text-anchor="middle">Can't read</text>
    <text x="330" y="616" font-size="9" fill="#adb5bd" text-anchor="middle">encrypted data</text>

    <!-- Arrow: Mempool → Validator -->
    <line x1="610" y1="515" x2="680" y2="515" stroke="#2a9d8f" class="flow-line" marker-end="url(#arr-teal)"/>
    <circle r="5" fill="#2a9d8f" opacity="0.8">
      <animate attributeName="cx" values="610;680" dur="0.8s" begin="0.2s" calcMode="spline" keySplines="0.4 0 0.6 1" repeatCount="indefinite"/>
      <animate attributeName="cy" values="515;515" dur="0.8s" begin="0.2s" repeatCount="indefinite"/>
      <animate attributeName="opacity" values="0.8;0" dur="0.8s" begin="0.2s" repeatCount="indefinite"/>
    </circle>

    <!-- ── Validator ── -->
    <rect x="690" y="490" width="120" height="50" rx="10" fill="white" stroke="#dee2e6" stroke-width="1.5" filter="url(#shadow)"/>
    <g transform="translate(705, 496) scale(0.55)" stroke="#495057" fill="none" stroke-width="2" stroke-linecap="round" stroke-linejoin="round">
      <rect x="4" y="4" width="16" height="16" rx="2"/>
      <rect x="8" y="8" width="8" height="8" rx="1"/>
      <path d="M12 2v2"/><path d="M12 20v2"/><path d="M2 12h2"/><path d="M20 12h2"/>
    </g>
    <text x="750" y="516" class="node-label text" font-size="12">Validators</text>
    <text x="750" y="531" class="sub text" font-size="9">Threshold decrypt</text>

    <!-- Arrow: Validator → Decrypt -->
    <line x1="810" y1="515" x2="845" y2="515" stroke="#2a9d8f" class="flow-line" marker-end="url(#arr-teal)"/>

    <!-- ── Decrypt step ── -->
    <circle cx="870" cy="515" r="20" fill="#e3f2fd" stroke="#457b9d" stroke-width="2" filter="url(#shadow)"/>
    <g transform="translate(860, 505) scale(0.7)" stroke="#457b9d" fill="none" stroke-width="2.5" stroke-linecap="round" stroke-linejoin="round">
      <rect width="18" height="11" x="3" y="11" rx="2" ry="2"/>
      <path d="M7 11V7a5 5 0 0 1 9.9-1"/>
    </g>
    <text x="870" y="550" font-size="10" fill="#457b9d" text-anchor="middle" font-weight="600">Decrypt</text>

    <!-- Arrow: Decrypt → Block -->
    <line x1="890" y1="515" x2="930" y2="515" stroke="#2a9d8f" class="flow-line" marker-end="url(#arr-teal)"/>

    <!-- ── Block ── -->
    <rect x="940" y="490" width="120" height="50" rx="10" fill="white" stroke="#dee2e6" stroke-width="1.5" filter="url(#shadow)"/>
    <g transform="translate(956, 496) scale(0.55)" stroke="#495057" fill="none" stroke-width="2" stroke-linecap="round" stroke-linejoin="round">
      <path d="M21 8a2 2 0 0 0-1-1.73l-7-4a2 2 0 0 0-2 0l-7 4A2 2 0 0 0 3 8v8a2 2 0 0 0 1 1.73l7 4a2 2 0 0 0 2 0l7-4A2 2 0 0 0 21 16Z"/>
      <path d="m3.3 7 8.7 5 8.7-5"/><path d="M12 22V12"/>
    </g>
    <text x="1000" y="516" class="node-label text" font-size="12">Block</text>
    <text x="1000" y="531" class="sub text" font-size="9">Fair ordering</text>

    <!-- Bottom protection stat -->
    <text x="550" y="672" font-size="12" fill="#2a9d8f" text-anchor="middle" font-weight="600">Threshold encryption: zero MEV — your transaction stays private until execution</text>
  </g>
</svg>
